<svg width="949" height="763" viewBox="0 0 949 763" fill="none" xmlns="http://www.w3.org/2000/svg">
<g clip-path="url(#clip0_2995_16865)">
<g style="mix-blend-mode:screen">
<path d="M686.415 260.173V162.433L604.604 211.303L686.415 260.173Z" fill="#1a4a7a" fill-opacity="0.35"/>
</g>
<g style="mix-blend-mode:screen">
<path d="M686.415 129.116V31.2798L604.604 80.2458L686.415 129.116Z" fill="#1a4a7a" fill-opacity="0.35"/>
</g>
<g style="mix-blend-mode:screen">
<path d="M112 171V114L64 142.528L112 171Z" fill="#2060a0" fill-opacity="0.25"/>
</g>
<g style="mix-blend-mode:screen">
<path d="M73 725V668L25 696.528L73 725Z" fill="#2060a0" fill-opacity="0.25"/>
</g>
<g style="mix-blend-mode:screen">
<path d="M136 448V391L88 419.528L136 448Z" fill="#2060a0" fill-opacity="0.25"/>
</g>
<g style="mix-blend-mode:screen">
<path d="M48 209V152L0 180.528L48 209Z" fill="#2060a0" fill-opacity="0.25"/>
</g>
<g style="mix-blend-mode:screen">
<path d="M595.332 -34.1968V63.5433L677.145 14.6733L595.332 -34.1968Z" fill="#1a4a7a" fill-opacity="0.35"/>
</g>
<g style="mix-blend-mode:screen">
<path d="M485.818 31.2798V129.116L567.538 80.2458L485.818 31.2798Z" fill="#1a4a7a" fill-opacity="0.35"/>
</g>
<g style="mix-blend-mode:screen">
<path d="M576.805 194.694V96.8579L495.085 145.728L576.805 194.694Z" fill="#1a4a7a" fill-opacity="0.35"/>
</g>
<g style="mix-blend-mode:screen">
<path d="M576.805 63.5433V-34.1968L495.085 14.6733L576.805 63.5433Z" fill="#1a4a7a" fill-opacity="0.35"/>
</g>
<g style="mix-blend-mode:screen">
<path d="M595.332 96.8579V194.694L677.145 145.728L595.332 96.8579Z" fill="#1a4a7a" fill-opacity="0.35"/>
</g>
<g style="mix-blend-mode:screen">
<path d="M59 152V209L107 180.472L59 152Z" fill="#2060a0" fill-opacity="0.25"/>
</g>
<g style="mix-blend-mode:screen">
<path d="M20 706V763L68 734.472L20 706Z" fill="#2060a0" fill-opacity="0.25"/>
</g>
<g style="mix-blend-mode:screen">
<path d="M814.457 -34.1968V63.5433L896.177 14.6733L814.457 -34.1968Z" fill="#1a4a7a" fill-opacity="0.35"/>
</g>
<g style="mix-blend-mode:screen">
<path d="M905.444 129.116V31.2798L823.724 80.2458L905.444 129.116Z" fill="#1a4a7a" fill-opacity="0.35"/>
</g>
<g style="mix-blend-mode:screen">
<path d="M795.931 63.5433V-34.1968L714.21 14.6733L795.931 63.5433Z" fill="#1a4a7a" fill-opacity="0.35"/>
</g>
<g style="mix-blend-mode:screen">
<path d="M814.457 194.694L896.177 145.728L814.457 96.8579V194.694Z" fill="#1a4a7a" fill-opacity="0.35"/>
</g>
<g style="mix-blend-mode:screen">
<path d="M704.946 31.2798V129.116L786.666 80.2458L704.946 31.2798Z" fill="#1a4a7a" fill-opacity="0.35"/>
</g>
<g style="mix-blend-mode:screen">
<path d="M704.946 260.173L786.666 211.303L704.946 162.433V260.173Z" fill="#1a4a7a" fill-opacity="0.35"/>
</g>
<g style="mix-blend-mode:screen">
<path d="M795.931 194.694V96.8579L714.21 145.728L795.931 194.694Z" fill="#1a4a7a" fill-opacity="0.35"/>
</g>
<g style="mix-blend-mode:screen">
<path d="M905.216 652.976V555.236L823.403 604.106L905.216 652.976Z" fill="#1a4a7a" fill-opacity="0.35"/>
</g>
<g style="mix-blend-mode:screen">
<path d="M795.603 325.288V227.452L713.883 276.418L795.603 325.288Z" fill="#1a4a7a" fill-opacity="0.35"/>
</g>
<g style="mix-blend-mode:screen">
<path d="M905.216 521.918V424.082L823.403 473.048L905.216 521.918Z" fill="#1a4a7a" fill-opacity="0.35"/>
</g>
<g style="mix-blend-mode:screen">
<path d="M905.216 390.864V293.028L823.403 341.898L905.216 390.864Z" fill="#1a4a7a" fill-opacity="0.35"/>
</g>
<g style="mix-blend-mode:screen">
<path d="M905.216 259.809V161.973L823.403 210.843L905.216 259.809Z" fill="#1a4a7a" fill-opacity="0.35"/>
</g>
<g style="mix-blend-mode:screen">
<path d="M704.615 293.028V390.864L786.335 341.898L704.615 293.028Z" fill="#1a4a7a" fill-opacity="0.35"/>
</g>
<g style="mix-blend-mode:screen">
<path d="M814.13 358.606V456.346L895.943 407.476L814.13 358.606Z" fill="#1a4a7a" fill-opacity="0.35"/>
</g>
<g style="mix-blend-mode:screen">
<path d="M814.13 227.452V325.288L895.943 276.418L814.13 227.452Z" fill="#1a4a7a" fill-opacity="0.35"/>
</g>
<g style="mix-blend-mode:screen">
<path d="M704.615 424.082V521.918L786.335 473.048L704.615 424.082Z" fill="#1a4a7a" fill-opacity="0.35"/>
</g>
<g style="mix-blend-mode:screen">
<path d="M795.603 587.497V489.661L713.883 538.531L795.603 587.497Z" fill="#1a4a7a" fill-opacity="0.35"/>
</g>
<g style="mix-blend-mode:screen">
<path d="M795.603 456.346V358.606L713.883 407.476L795.603 456.346Z" fill="#1a4a7a" fill-opacity="0.35"/>
</g>
<g style="mix-blend-mode:screen">
<path d="M814.13 489.661V587.497L895.943 538.531L814.13 489.661Z" fill="#1a4a7a" fill-opacity="0.35"/>
</g>
<g style="mix-blend-mode:screen">
<path d="M1014.73 325.288V227.452L933.007 276.418L1014.73 325.288Z" fill="#1a4a7a" fill-opacity="0.35"/>
</g>
<g style="mix-blend-mode:screen">
<path d="M1014.73 456.346V358.606L933.007 407.476L1014.73 456.346Z" fill="#1a4a7a" fill-opacity="0.35"/>
</g>
<g style="mix-blend-mode:screen">
<path d="M923.743 293.028V390.864L1005.46 341.898L923.743 293.028Z" fill="#1a4a7a" fill-opacity="0.35"/>
</g>
<g style="mix-blend-mode:screen">
<path d="M923.743 161.973V259.809L1005.46 210.843L923.743 161.973Z" fill="#1a4a7a" fill-opacity="0.35"/>
</g>
<g style="mix-blend-mode:screen">
<path d="M923.743 424.082V521.918L1005.46 473.048L923.743 424.082Z" fill="#1a4a7a" fill-opacity="0.35"/>
</g>
<g style="mix-blend-mode:screen">
<path d="M923.743 652.976L1005.46 604.106L923.743 555.236V652.976Z" fill="#1a4a7a" fill-opacity="0.35"/>
</g>
<g style="mix-blend-mode:screen">
<path d="M1014.73 587.497V489.661L933.007 538.531L1014.73 587.497Z" fill="#1a4a7a" fill-opacity="0.35"/>
</g>
<g style="mix-blend-mode:screen">
<path d="M924.983 31.2798V129.116L1006.7 80.2458L924.983 31.2798Z" fill="#1a4a7a" fill-opacity="0.35"/>
</g>
<g style="mix-blend-mode:screen">
<path d="M1015.97 194.694V96.8579L934.251 145.728L1015.97 194.694Z" fill="#1a4a7a" fill-opacity="0.35"/>
</g>
<g style="mix-blend-mode:screen">
<path d="M1015.97 63.5432V-34.1968L934.251 14.6732L1015.97 63.5432Z" fill="#1a4a7a" fill-opacity="0.35"/>
</g>
</g>
<defs>
<clipPath id="clip0_2995_16865">
<rect width="949" height="763" fill="white"/>
</clipPath>
</defs>
</svg>
